<?xml version="1.0"?>
<svg xmlns="http://www.w3.org/2000/svg" height="512px" viewBox="0 -77 512 512" width="512px"><path d="m59.734375 17.066406h-51.199219c-4.710937 0-8.535156-3.824218-8.535156-8.53125 0-4.710937 3.824219-8.535156 8.535156-8.535156h51.199219c4.710937 0 8.53125 3.824219 8.53125 8.535156 0 4.707032-3.820313 8.53125-8.53125 8.53125zm0 0" fill="#5c98c7"/><path d="m59.734375 221.867188c-4.710937 0-8.535156-3.824219-8.535156-8.535157v-204.796875c0-4.710937 3.824219-8.535156 8.535156-8.535156s8.53125 3.824219 8.53125 8.535156v204.796875c0 4.710938-3.820313 8.535157-8.53125 8.535157zm0 0" fill="#5c98c7"/><path d="m59.734375 145.066406h-34.132813c-4.710937 0-8.535156-3.824218-8.535156-8.53125v-51.203125c0-4.710937 3.824219-8.53125 8.535156-8.53125h34.132813c4.710937 0 8.53125 3.820313 8.53125 8.53125v51.203125c0 4.707032-3.820313 8.53125-8.53125 8.53125zm-25.601563-17.066406h17.066407v-34.132812h-17.066407zm0 0" fill="#5c98c7"/><path d="m59.734375 247.464844h-34.132813c-4.710937 0-8.535156-3.820313-8.535156-8.53125v-34.132813c0-4.710937 3.824219-8.535156 8.535156-8.535156h34.132813c4.710937 0 8.53125 3.824219 8.53125 8.535156v34.132813c0 4.710937-3.820313 8.53125-8.53125 8.53125zm-25.601563-17.066406h17.066407v-17.066407h-17.066407zm0 0" fill="#5c98c7"/><path d="m153.601562 358.398438c-4.710937 0-8.535156-3.820313-8.535156-8.53125v-25.601563c0-4.710937 3.824219-8.53125 8.535156-8.53125 4.707032 0 8.53125 3.820313 8.53125 8.53125v25.601563c0 4.710937-3.824218 8.53125-8.53125 8.53125zm0 0" fill="#5c98c7"/><path d="m187.734375 358.398438h-68.269531c-4.707032 0-8.53125-3.820313-8.53125-8.53125v-59.734376c0-4.710937 3.824218-8.53125 8.53125-8.53125h68.269531c4.710937 0 8.53125 3.820313 8.53125 8.53125v59.734376c0 4.710937-3.820313 8.53125-8.53125 8.53125zm-59.734375-17.066407h51.199219v-42.664062h-51.199219zm0 0" fill="#5c98c7"/><path d="m59.734375 59.734375h-34.132813c-4.710937 0-8.535156-3.824219-8.535156-8.535156 0-4.710938 3.824219-8.53125 8.535156-8.53125h34.132813c4.710937 0 8.53125 3.820312 8.53125 8.53125 0 4.710937-3.820313 8.535156-8.53125 8.535156zm0 0" fill="#5c98c7"/><path d="m59.734375 179.199219h-34.132813c-4.710937 0-8.535156-3.820313-8.535156-8.53125 0-4.710938 3.824219-8.535157 8.535156-8.535157h34.132813c4.710937 0 8.53125 3.824219 8.53125 8.535157 0 4.710937-3.820313 8.53125-8.53125 8.53125zm0 0" fill="#5c98c7"/><path d="m469.324219 298.667969h-375.457031c-23.527344 0-42.667969-19.140625-42.667969-42.667969v-204.800781c0-4.710938 3.824219-8.53125 8.535156-8.53125h409.589844c23.535156 0 42.675781 19.140625 42.675781 42.664062v170.667969c0 23.527344-19.140625 42.667969-42.675781 42.667969zm-401.058594-238.933594v196.265625c0 14.113281 11.488281 25.601562 25.601563 25.601562h375.457031c14.125 0 25.609375-11.488281 25.609375-25.601562v-170.667969c0-14.113281-11.484375-25.597656-25.609375-25.597656zm0 0" fill="#5c98c7"/><path d="m384 264.535156c-51.753906 0-93.867188-42.113281-93.867188-93.867187 0-51.757813 42.113282-93.867188 93.867188-93.867188s93.867188 42.109375 93.867188 93.867188c0 51.753906-42.113282 93.867187-93.867188 93.867187zm0-170.667968c-42.351562 0-76.800781 34.457031-76.800781 76.800781 0 42.339843 34.449219 76.796875 76.800781 76.796875s76.800781-34.457032 76.800781-76.796875c0-42.34375-34.449219-76.800781-76.800781-76.800781zm0 0" fill="#5c98c7"/><path d="m384 204.800781c-18.824219 0-34.132812-15.308593-34.132812-34.132812s15.308593-34.132813 34.132812-34.132813 34.132812 15.308594 34.132812 34.132813-15.308593 34.132812-34.132812 34.132812zm0-51.199219c-9.414062 0-17.066406 7.652344-17.066406 17.066407 0 9.410156 7.652344 17.066406 17.066406 17.066406s17.066406-7.65625 17.066406-17.066406c0-9.414063-7.652344-17.066407-17.066406-17.066407zm0 0" fill="#5c98c7"/><path d="m384 153.601562c-4.710938 0-8.535156-3.824218-8.535156-8.535156 0-18.378906-23.457032-34.132812-42.664063-34.132812-4.710937 0-8.535156-3.824219-8.535156-8.535156 0-4.707032 3.824219-8.53125 8.535156-8.53125 27.621094 0 59.734375 22.367187 59.734375 51.199218 0 4.710938-3.824218 8.535156-8.535156 8.535156zm0 0" fill="#5c98c7"/><path d="m435.199219 247.464844c-27.621094 0-59.734375-22.363282-59.734375-51.199219 0-4.710937 3.824218-8.53125 8.535156-8.53125s8.535156 3.820313 8.535156 8.53125c0 18.382813 23.457032 34.132813 42.664063 34.132813 4.710937 0 8.535156 3.824218 8.535156 8.535156 0 4.710937-3.824219 8.53125-8.535156 8.53125zm0 0" fill="#5c98c7"/><path d="m315.734375 230.398438c-4.710937 0-8.535156-3.820313-8.535156-8.53125 0-27.621094 22.367187-59.734376 51.199219-59.734376 4.710937 0 8.535156 3.824219 8.535156 8.535157 0 4.710937-3.824219 8.53125-8.535156 8.53125-18.378907 0-34.132813 23.46875-34.132813 42.667969 0 4.710937-3.820313 8.53125-8.53125 8.53125zm0 0" fill="#5c98c7"/><path d="m409.601562 179.199219c-4.710937 0-8.535156-3.820313-8.535156-8.53125 0-4.710938 3.824219-8.535157 8.535156-8.535157 18.378907 0 34.132813-23.464843 34.132813-42.667968 0-4.707032 3.820313-8.53125 8.53125-8.53125s8.535156 3.824218 8.535156 8.53125c0 27.625-22.367187 59.734375-51.199219 59.734375zm0 0" fill="#5c98c7"/><path d="m299.527344 167.132812c-2.183594 0-4.367188-.835937-6.03125-2.5-3.335938-3.328124-3.335938-8.730468 0-12.066406 9.496094-9.496094 23.773437-16.210937 38.195312-17.960937 16.28125-2.007813 30.582032 2.253906 40.25 11.929687 3.328125 3.335938 3.328125 8.738282 0 12.066406-3.335937 3.335938-8.738281 3.335938-12.066406 0-5.792969-5.796874-15.300781-8.363281-26.121094-7.058593-10.757812 1.304687-21.289062 6.203125-28.175781 13.089843-1.679687 1.664063-3.875 2.5-6.050781 2.5zm0 0" fill="#5c98c7"/><path d="m428.628906 207.207031c-13.074218 0-24.449218-4.285156-32.5625-12.40625-3.328125-3.339843-3.328125-8.738281 0-12.066406 3.335938-3.339844 8.738282-3.339844 12.066406 0 5.792969 5.792969 15.308594 8.378906 26.121094 7.054687 10.757813-1.304687 21.289063-6.203124 28.175782-13.089843 3.335937-3.335938 8.738281-3.335938 12.066406 0 3.335937 3.328125 3.335937 8.730469 0 12.066406-9.496094 9.496094-23.773438 16.214844-38.195313 17.964844-2.601562.324219-5.171875.476562-7.671875.476562zm0 0" fill="#5c98c7"/><path d="m371.933594 263.671875c-2.183594 0-4.367188-.835937-6.03125-2.5-19.535156-19.535156-26.421875-58.054687-6.035156-78.4375 3.335937-3.339844 8.738281-3.339844 12.066406 0 3.335937 3.328125 3.335937 8.726563 0 12.066406-12.996094 12.996094-7.550782 40.726563 6.035156 54.304688 3.335938 3.335937 3.335938 8.730469 0 12.066406-1.664062 1.671875-3.851562 2.5-6.035156 2.5zm0 0" fill="#5c98c7"/><path d="m402.097656 161.101562c-2.183594 0-4.367187-.835937-6.03125-2.5-3.335937-3.328124-3.335937-8.730468 0-12.066406 12.996094-12.996094 7.550782-40.730468-6.035156-54.308594-3.335938-3.335937-3.335938-8.726562 0-12.0625 3.328125-3.339843 8.738281-3.339843 12.066406 0 19.535156 19.53125 26.421875 58.050782 6.035156 78.4375-1.664062 1.664063-3.847656 2.5-6.035156 2.5zm0 0" fill="#5c98c7"/><path d="m426.667969 358.398438h-187.734375c-4.710938 0-8.535156-3.820313-8.535156-8.53125v-59.734376c0-4.710937 3.824218-8.53125 8.535156-8.53125h187.734375c4.710937 0 8.53125 3.820313 8.53125 8.53125v59.734376c0 4.710937-3.820313 8.53125-8.53125 8.53125zm-179.203125-17.066407h170.667968v-42.664062h-170.667968zm0 0" fill="#5c98c7"/><path d="m281.601562 358.398438c-4.710937 0-8.535156-3.820313-8.535156-8.53125v-25.601563c0-4.710937 3.824219-8.53125 8.535156-8.53125 4.707032 0 8.53125 3.820313 8.53125 8.53125v25.601563c0 4.710937-3.824218 8.53125-8.53125 8.53125zm0 0" fill="#5c98c7"/><path d="m384 358.398438c-4.710938 0-8.535156-3.820313-8.535156-8.53125v-25.601563c0-4.710937 3.824218-8.53125 8.535156-8.53125s8.535156 3.820313 8.535156 8.53125v25.601563c0 4.710937-3.824218 8.53125-8.535156 8.53125zm0 0" fill="#5c98c7"/><path d="m349.867188 358.398438c-4.710938 0-8.535157-3.820313-8.535157-8.53125v-25.601563c0-4.710937 3.824219-8.53125 8.535157-8.53125 4.710937 0 8.53125 3.820313 8.53125 8.53125v25.601563c0 4.710937-3.820313 8.53125-8.53125 8.53125zm0 0" fill="#5c98c7"/><path d="m315.734375 358.398438c-4.710937 0-8.535156-3.820313-8.535156-8.53125v-25.601563c0-4.710937 3.824219-8.53125 8.535156-8.53125s8.53125 3.820313 8.53125 8.53125v25.601563c0 4.710937-3.820313 8.53125-8.53125 8.53125zm0 0" fill="#5c98c7"/><path d="m298.667969 298.667969c-2.1875 0-4.371094-.835938-6.035157-2.5l-65.765624-65.769531h-167.132813c-4.710937 0-8.535156-3.820313-8.535156-8.53125v-102.402344c0-4.707032 3.824219-8.53125 8.535156-8.53125h167.132813l65.765624-65.765625c3.328126-3.335938 8.738282-3.335938 12.066407 0 3.335937 3.335937 3.335937 8.730469 0 12.066406l-68.265625 68.265625c-1.597656 1.605469-3.773438 2.5-6.035156 2.5h-162.132813v85.332031h162.132813c2.261718 0 4.4375.898438 6.035156 2.5l68.265625 68.269531c3.335937 3.335938 3.335937 8.726563 0 12.066407-1.664063 1.664062-3.847657 2.5-6.03125 2.5zm0 0" fill="#5c98c7"/><path d="m230.398438 179.199219h-34.132813c-4.710937 0-8.53125-3.820313-8.53125-8.53125 0-4.710938 3.820313-8.535157 8.53125-8.535157h34.132813c4.710937 0 8.535156 3.824219 8.535156 8.535157 0 4.710937-3.824219 8.53125-8.535156 8.53125zm0 0" fill="#5c98c7"/><path d="m153.601562 179.199219h-93.867187c-4.710937 0-8.535156-3.820313-8.535156-8.53125 0-4.710938 3.824219-8.535157 8.535156-8.535157h93.867187c4.707032 0 8.53125 3.824219 8.53125 8.535157 0 4.710937-3.824218 8.53125-8.53125 8.53125zm0 0" fill="#5c98c7"/></svg>
